<svg width="30" height="30" viewBox="0 0 30 30" fill="none" xmlns="http://www.w3.org/2000/svg">
<path d="M1 15C1 18.0653 1.16555 20.4603 1.58286 22.338C1.99765 24.2044 2.64775 25.4979 3.57492 26.4251C4.50209 27.3523 5.79561 28.0023 7.66199 28.4171C9.53972 28.8344 11.9347 29 15 29C18.0653 29 20.4603 28.8344 22.338 28.4171C24.2044 28.0023 25.4979 27.3523 26.4251 26.4251C27.3523 25.4979 28.0023 24.2044 28.4171 22.338C28.8344 20.4603 29 18.0653 29 15C29 11.9347 28.8344 9.53972 28.4171 7.66199C28.0023 5.79561 27.3523 4.50209 26.4251 3.57492C25.4979 2.64775 24.2044 1.99765 22.338 1.58286C20.4603 1.16555 18.0653 1 15 1C11.9347 1 9.53972 1.16555 7.66199 1.58286C5.79561 1.99765 4.50209 2.64775 3.57492 3.57492C2.64775 4.50209 1.99765 5.79561 1.58286 7.66199C1.16555 9.53972 1 11.9347 1 15Z" stroke="black" stroke-width="2" stroke-linecap="round" stroke-linejoin="round"/>
<path d="M18.75 11.25L15 15M15 15L11.25 18.75M15 15L18.75 18.75M15 15L11.25 11.25" stroke="black" stroke-width="2" stroke-linecap="round" stroke-linejoin="round"/>
</svg>
