<svg width="20" height="20" viewBox="0 0 20 20" fill="none" xmlns="http://www.w3.org/2000/svg">
<path fill-rule="evenodd" clip-rule="evenodd" d="M9.16666 13.3334C9.16666 13.7936 9.53975 14.1667 9.99999 14.1667C10.4602 14.1667 10.8333 13.7936 10.8333 13.3334C10.8333 12.8731 10.4602 12.5 9.99999 12.5C9.53975 12.5 9.16666 12.8731 9.16666 13.3334ZM9.99999 10.8334C9.53975 10.8334 9.16666 10.4603 9.16666 10C9.16666 9.53978 9.53975 9.16669 9.99999 9.16669C10.4602 9.16669 10.8333 9.53978 10.8333 10C10.8333 10.4603 10.4602 10.8334 9.99999 10.8334ZM9.99999 7.50002C9.53975 7.50002 9.16666 7.12692 9.16666 6.66669C9.16666 6.20645 9.53975 5.83335 9.99999 5.83335C10.4602 5.83335 10.8333 6.20645 10.8333 6.66669C10.8333 7.12692 10.4602 7.50002 9.99999 7.50002Z" fill="white"/>
</svg>
