<svg width="30" height="30" viewBox="0 0 30 30" fill="none" xmlns="http://www.w3.org/2000/svg">
<path d="M1 15C1 18.0653 1.16555 20.4603 1.58286 22.338C1.99765 24.2044 2.64775 25.4979 3.57492 26.4251C4.50209 27.3523 5.79561 28.0023 7.66199 28.4171C9.53972 28.8344 11.9347 29 15 29C18.0653 29 20.4603 28.8344 22.338 28.4171C24.2044 28.0023 25.4979 27.3523 26.4251 26.4251C27.3523 25.4979 28.0023 24.2044 28.4171 22.338C28.8344 20.4603 29 18.0653 29 15C29 11.9347 28.8344 9.53972 28.4171 7.66199C28.0023 5.79561 27.3523 4.50209 26.4251 3.57492C25.4979 2.64775 24.2044 1.99765 22.338 1.58286C20.4603 1.16555 18.0653 1 15 1C11.9347 1 9.53972 1.16555 7.66199 1.58286C5.79561 1.99765 4.50209 2.64775 3.57492 3.57492C2.64775 4.50209 1.99765 5.79561 1.58286 7.66199C1.16555 9.53972 1 11.9347 1 15Z" stroke="white" stroke-width="2" stroke-linecap="round" stroke-linejoin="round"/>
<path d="M20.8669 15C20.8669 14.1497 20.3654 13.5569 19.8317 13.1149C19.3246 12.6949 18.5977 12.257 17.7578 11.7512C17.7355 11.7377 17.7131 11.7242 17.6906 11.7107L15.6714 10.4944C15.6484 10.4805 15.6255 10.4667 15.6027 10.453C14.7642 9.9478 14.0368 9.50958 13.4331 9.26075C12.8036 9.00129 12.0231 8.8268 11.274 9.27802C10.5409 9.71966 10.3076 10.4809 10.2111 11.1594C10.1168 11.8215 10.1169 12.6915 10.1169 13.7075C10.1169 13.7328 10.1169 13.7582 10.1169 13.7837L10.1169 16.2163C10.1169 16.2418 10.1169 16.2672 10.1169 16.2925C10.1169 17.3086 10.1168 18.1785 10.2111 18.8406C10.3076 19.5191 10.5409 20.2803 11.274 20.722C12.0231 21.1732 12.8036 20.9987 13.4331 20.7393C14.0369 20.4904 14.7642 20.0522 15.6027 19.547C15.6255 19.5333 15.6484 19.5195 15.6714 19.5056L17.6906 18.2893C17.7131 18.2758 17.7355 18.2623 17.7578 18.2488C18.5977 17.743 19.3246 17.3051 19.8317 16.8851C20.3654 16.4431 20.8669 15.8503 20.8669 15Z" stroke="white" stroke-width="2" stroke-linecap="round" stroke-linejoin="round"/>
</svg>
