<svg width="8" height="8" viewBox="0 0 8 8" fill="none" xmlns="http://www.w3.org/2000/svg">
<path fill-rule="evenodd" clip-rule="evenodd" d="M3.10551 0.44431C3.55471 -0.148103 4.4453 -0.148103 4.89449 0.44431L5.2685 0.937563L5.88175 0.853245C6.61828 0.751977 7.24802 1.38172 7.14676 2.11825L7.06244 2.7315L7.55569 3.10551C8.1481 3.55471 8.1481 4.4453 7.55569 4.89449L7.06244 5.2685L7.14676 5.88175C7.24802 6.61828 6.61828 7.24802 5.88175 7.14676L5.2685 7.06244L4.89449 7.55569C4.4453 8.1481 3.55471 8.1481 3.10551 7.55569L2.7315 7.06244L2.11825 7.14676C1.38172 7.24802 0.751977 6.61828 0.853245 5.88175L0.937562 5.2685L0.44431 4.89449C-0.148103 4.4453 -0.148103 3.55471 0.44431 3.10551L0.937563 2.7315L0.853245 2.11825C0.751977 1.38172 1.38172 0.751977 2.11825 0.853245L2.7315 0.937562L3.10551 0.44431ZM5.56905 3.56904C5.69922 3.43886 5.69922 3.22781 5.56905 3.09763C5.43887 2.96746 5.22782 2.96746 5.09764 3.09763L3.66668 4.5286L3.23571 4.09763C3.10554 3.96746 2.89448 3.96746 2.76431 4.09763C2.63413 4.22781 2.63413 4.43886 2.76431 4.56904L3.43097 5.2357C3.56115 5.36588 3.7722 5.36588 3.90238 5.2357L5.56905 3.56904Z" fill="#4951B5"/>
</svg>
